<svg width="12" height="13" viewBox="0 0 12 13" fill="none" xmlns="http://www.w3.org/2000/svg">
<path d="M3.34824 0C2.98087 0 2.68272 0.306526 2.68272 0.684211C1.21125 0.684211 0 1.911 0 3.42105V4.78947L0.020635 10.2632C0.020635 11.7725 1.21258 13 2.68272 13H9.33792C10.8081 13 12 11.7746 12 10.2632L11.9794 4.78947V3.42105C11.9794 1.90826 10.8067 0.684211 9.33792 0.684211C9.33792 0.306526 9.04043 0 8.6724 0C8.30503 0 8.00688 0.306526 8.00688 0.684211H4.01376C4.01376 0.306526 3.71627 0 3.34824 0ZM2.68272 2.05263C2.68272 2.43032 2.98087 2.73684 3.34824 2.73684C3.71627 2.73684 4.01376 2.43032 4.01376 2.05263H8.00688C8.00688 2.43032 8.30503 2.73684 8.6724 2.73684C9.04043 2.73684 9.33792 2.43032 9.33792 2.05263C10.068 2.05263 10.6483 2.66021 10.6483 3.42105V4.10526C9.36786 4.10526 2.6115 4.10526 1.33104 4.10526V3.42105C1.33104 2.67047 1.94266 2.05263 2.68272 2.05263ZM1.33104 5.47368C2.6115 5.47368 9.36786 5.47368 10.6483 5.47368L10.669 10.2632C10.669 11.0165 10.0733 11.6316 9.33792 11.6316H2.68272C1.94798 11.6316 1.35168 11.0192 1.35168 10.2632L1.33104 5.47368Z" fill="white"/>
</svg>
